<svg xmlns="http://www.w3.org/2000/svg" viewBox="0 0 390 844" font-family="-apple-system, system-ui, sans-serif">
  <rect x="1" y="1" width="388" height="842" rx="48" fill="#fff" stroke="#222" stroke-width="2"/>
  <rect x="135" y="14" width="120" height="28" rx="14" fill="#222"/>
  <text x="30" y="36" font-size="14" font-weight="600" fill="#222">9:41</text>
  <text x="335" y="36" font-size="14" fill="#222">●●●●</text>

  <text x="195" y="92" font-size="17" font-weight="700" fill="#222" text-anchor="middle">Tour</text>
  <text x="358" y="92" font-size="22" font-weight="300" fill="#222" text-anchor="end">+</text>

  <!-- Segmented control -->
  <rect x="20" y="110" width="350" height="36" rx="10" fill="#f1f1f1"/>
  <rect x="22" y="112" width="172" height="32" rx="8" fill="#fff" stroke="#222"/>
  <text x="108" y="133" font-size="13" font-weight="700" fill="#222" text-anchor="middle">Upcoming</text>
  <text x="282" y="133" font-size="13" fill="#666" text-anchor="middle">Offers (3)</text>

  <!-- Tour summary -->
  <rect x="20" y="160" width="350" height="68" rx="14" fill="none" stroke="#222" stroke-width="1.5"/>
  <text x="34" y="182" font-size="11" fill="#888" letter-spacing="1">"GLASS CITY" TOUR</text>
  <text x="34" y="204" font-size="15" font-weight="700" fill="#222">6 of 14 shows complete</text>
  <text x="34" y="220" font-size="11" fill="#666">Avg attendance 78% · +6.2k fans so far</text>

  <!-- Gig cards -->
  <g>
    <rect x="20" y="240" width="350" height="96" rx="14" fill="none" stroke="#ddd"/>
    <rect x="34" y="254" width="56" height="64" rx="8" fill="#222"/>
    <text x="62" y="278" font-size="10" fill="#fff" text-anchor="middle">SAT</text>
    <text x="62" y="302" font-size="20" font-weight="700" fill="#fff" text-anchor="middle">23</text>
    <text x="62" y="316" font-size="9" fill="#fff" text-anchor="middle">MAY</text>

    <text x="104" y="272" font-size="15" font-weight="700" fill="#222">Mohawk · Austin</text>
    <text x="104" y="290" font-size="11" fill="#666">450 cap · $1,200 guarantee + door</text>
    <text x="104" y="312" font-size="11" fill="#22a06b">68% sold · projected sell-out</text>

    <rect x="280" y="298" width="76" height="26" rx="13" fill="none" stroke="#222"/>
    <text x="318" y="315" font-size="11" font-weight="600" fill="#222" text-anchor="middle">Promote</text>
  </g>

  <g>
    <rect x="20" y="348" width="350" height="96" rx="14" fill="none" stroke="#ddd"/>
    <rect x="34" y="362" width="56" height="64" rx="8" fill="#222"/>
    <text x="62" y="386" font-size="10" fill="#fff" text-anchor="middle">THU</text>
    <text x="62" y="410" font-size="20" font-weight="700" fill="#fff" text-anchor="middle">28</text>
    <text x="62" y="424" font-size="9" fill="#fff" text-anchor="middle">MAY</text>

    <text x="104" y="380" font-size="15" font-weight="700" fill="#222">Bottom of the Hill · SF</text>
    <text x="104" y="398" font-size="11" fill="#666">350 cap · $900 guarantee</text>
    <text x="104" y="420" font-size="11" fill="#d29900">41% sold · needs push</text>

    <rect x="280" y="406" width="76" height="26" rx="13" fill="none" stroke="#222"/>
    <text x="318" y="423" font-size="11" font-weight="600" fill="#222" text-anchor="middle">Promote</text>
  </g>

  <g>
    <rect x="20" y="456" width="350" height="96" rx="14" fill="none" stroke="#ddd"/>
    <rect x="34" y="470" width="56" height="64" rx="8" fill="#222"/>
    <text x="62" y="494" font-size="10" fill="#fff" text-anchor="middle">SAT</text>
    <text x="62" y="518" font-size="20" font-weight="700" fill="#fff" text-anchor="middle">30</text>
    <text x="62" y="532" font-size="9" fill="#fff" text-anchor="middle">MAY</text>

    <text x="104" y="488" font-size="15" font-weight="700" fill="#222">The Echo · LA</text>
    <text x="104" y="506" font-size="11" fill="#666">700 cap · $2,400 guarantee</text>
    <text x="104" y="528" font-size="11" fill="#22a06b">55% sold</text>

    <rect x="280" y="514" width="76" height="26" rx="13" fill="none" stroke="#222"/>
    <text x="318" y="531" font-size="11" font-weight="600" fill="#222" text-anchor="middle">Promote</text>
  </g>

  <!-- Routing map placeholder -->
  <text x="20" y="588" font-size="13" font-weight="700" fill="#222" letter-spacing="1">ROUTING</text>
  <rect x="20" y="600" width="350" height="120" rx="14" fill="#fafafa" stroke="#ddd"/>
  <polyline points="60,680 110,650 180,640 240,665 300,635 340,660" fill="none" stroke="#222" stroke-width="1.5"/>
  <g fill="#222">
    <circle cx="60" cy="680" r="4"/>
    <circle cx="110" cy="650" r="4"/>
    <circle cx="180" cy="640" r="4"/>
    <circle cx="240" cy="665" r="4"/>
    <circle cx="300" cy="635" r="4"/>
    <circle cx="340" cy="660" r="4"/>
  </g>
  <text x="60" y="700" font-size="9" fill="#666" text-anchor="middle">ATX</text>
  <text x="110" y="670" font-size="9" fill="#666" text-anchor="middle">DAL</text>
  <text x="180" y="660" font-size="9" fill="#666" text-anchor="middle">PHX</text>
  <text x="240" y="685" font-size="9" fill="#666" text-anchor="middle">LA</text>
  <text x="300" y="655" font-size="9" fill="#666" text-anchor="middle">SF</text>
  <text x="340" y="680" font-size="9" fill="#666" text-anchor="middle">PDX</text>

  <!-- Book gig button -->
  <rect x="20" y="734" width="350" height="44" rx="22" fill="#222"/>
  <text x="195" y="762" font-size="14" font-weight="700" fill="#fff" text-anchor="middle">Book new gig</text>

  <!-- Tab bar -->
  <line x1="0" y1="784" x2="390" y2="784" stroke="#eee"/>
  <g font-size="10" text-anchor="middle">
    <circle cx="50" cy="805" r="8" fill="none" stroke="#888"/>
    <text x="50" y="828" fill="#888">Band</text>
    <circle cx="128" cy="805" r="8" fill="none" stroke="#888"/>
    <text x="128" y="828" fill="#888">Studio</text>
    <circle cx="206" cy="805" r="8" fill="none" stroke="#888"/>
    <text x="206" y="828" fill="#888">Albums</text>
    <circle cx="284" cy="805" r="8" fill="#222"/>
    <text x="284" y="828" fill="#222" font-weight="600">Tour</text>
    <circle cx="362" cy="805" r="8" fill="none" stroke="#888"/>
    <text x="362" y="828" fill="#888">Charts</text>
  </g>
</svg>
